<?xml version="1.0" encoding="iso-8859-1"?>
<!DOCTYPE svg PUBLIC "-//W3C//DTD SVG 1.1//EN" "http://www.w3.org/Graphics/SVG/1.1/DTD/svg11.dtd">
<svg xmlns="http://www.w3.org/2000/svg" xmlns:xlink="http://www.w3.org/1999/xlink" version="1.1" id="Capa_1" x="0px" y="0px" width="512px" height="512px" viewBox="0 0 612 612" style="enable-background:new 0 0 612 612;" xml:space="preserve">
<g>
	<g id="Shape_7_copy">
		<g>
			<path d="M612,373.678c0-52.736-54.779-101.938-127.019-119.641c0.161-2.402,0-9.122,0-11.547     c0-87.689-105.519-150.113-240.528-150.113C109.444,92.377,0,163.461,0,251.15c0,48.406,33.452,91.674,86.049,120.807     c-2.263,5.195-34.26,34.768-74.502,66.836l138.566-46.189c27.967,8.014,60.103,10.889,92.377,11.547     c23.926,50.646,91.338,93.023,177.78,93.023c27.518,0,53.625-3.799,77.285-10.531l91.35,32.98     c-12.806-16.029-42.62-47.945-44.398-51.986C585.753,444.98,612,411.332,612,373.678z M229.061,380.248     c0.012,0.092,0.012,0.184,0.023,0.277c-114.872-4.203-205.944-61.721-205.944-132.262c0-73.278,98.197-132.677,219.327-132.677     c121.13,0,219.327,59.398,219.327,132.677c0,3.014,0.093,5.773,0.093,5.773s-4.596,30.646-15.161,41.997     c-25.058,39.19-79.884,69.261-147.815,80.185c-11.016,2.875-22.171,4.734-33.325,4.838     C250.908,381.195,238.899,380.871,229.061,380.248z M415.698,473.434c-71.904,0-126.823-33.752-150.113-69.283     c107.666-6.373,197.745-59.596,219.396-127.019c61.685,13.638,104.04,53.476,104.04,92.39     C589.021,420.582,513.283,473.434,415.698,473.434z" fill="#2ec6c6"/>
		</g>
	</g>
</g>
</svg>
